<svg width="48" height="48" viewBox="0 0 48 48" fill="none" xmlns="http://www.w3.org/2000/svg">
<g clip-path="url(#clip0_1582_27312)">
<mask id="path-1-inside-1_1582_27312" fill="white">
<path fill-rule="evenodd" clip-rule="evenodd" d="M20 12H18V14H16V16H14V18H12V20V22V24V26V28V30H14V32H16V34H18V36H20H22H24H26H28H30V34H32V32H34V30H36V28V26V24V22V20V18H34V16H32V14H30V12H28H26H24H22H20Z"/>
</mask>
<path fill-rule="evenodd" clip-rule="evenodd" d="M20 12H18V14H16V16H14V18H12V20V22V24V26V28V30H14V32H16V34H18V36H20H22H24H26H28H30V34H32V32H34V30H36V28V26V24V22V20V18H34V16H32V14H30V12H28H26H24H22H20Z" fill="#282C3F"/>
<path d="M18 12V11H17V12H18ZM18 14V15H19V14H18ZM16 14V13H15V14H16ZM16 16V17H17V16H16ZM14 16V15H13V16H14ZM14 18V19H15V18H14ZM12 18V17H11V18H12ZM12 30H11V31H12V30ZM14 30H15V29H14V30ZM14 32H13V33H14V32ZM16 32H17V31H16V32ZM16 34H15V35H16V34ZM18 34H19V33H18V34ZM18 36H17V37H18V36ZM30 36V37H31V36H30ZM30 34V33H29V34H30ZM32 34V35H33V34H32ZM32 32V31H31V32H32ZM34 32V33H35V32H34ZM34 30V29H33V30H34ZM36 30V31H37V30H36ZM36 18H37V17H36V18ZM34 18H33V19H34V18ZM34 16H35V15H34V16ZM32 16H31V17H32V16ZM32 14H33V13H32V14ZM30 14H29V15H30V14ZM30 12H31V11H30V12ZM18 13H20V11H18V13ZM19 14V12H17V14H19ZM16 15H18V13H16V15ZM17 16V14H15V16H17ZM14 17H16V15H14V17ZM15 18V16H13V18H15ZM12 19H14V17H12V19ZM13 20V18H11V20H13ZM13 22V20H11V22H13ZM13 24V22H11V24H13ZM13 26V24H11V26H13ZM13 28V26H11V28H13ZM13 30V28H11V30H13ZM14 29H12V31H14V29ZM15 32V30H13V32H15ZM16 31H14V33H16V31ZM17 34V32H15V34H17ZM18 33H16V35H18V33ZM17 34V36H19V34H17ZM18 37H20V35H18V37ZM20 37H22V35H20V37ZM22 37H24V35H22V37ZM24 37H26V35H24V37ZM26 37H28V35H26V37ZM28 37H30V35H28V37ZM31 36V34H29V36H31ZM30 35H32V33H30V35ZM33 34V32H31V34H33ZM32 33H34V31H32V33ZM35 32V30H33V32H35ZM34 31H36V29H34V31ZM37 30V28H35V30H37ZM37 28V26H35V28H37ZM37 26V24H35V26H37ZM37 24V22H35V24H37ZM37 22V20H35V22H37ZM37 20V18H35V20H37ZM36 17H34V19H36V17ZM35 18V16H33V18H35ZM34 15H32V17H34V15ZM33 16V14H31V16H33ZM32 13H30V15H32V13ZM29 12V14H31V12H29ZM28 13H30V11H28V13ZM26 13H28V11H26V13ZM24 13H26V11H24V13ZM22 13H24V11H22V13ZM20 13H22V11H20V13Z" fill="#282C3F" mask="url(#path-1-inside-1_1582_27312)"/>
<path fill-rule="evenodd" clip-rule="evenodd" d="M25 23V20H23V23H20V25H23V28H25V25H28V23H25Z" fill="white"/>
</g>
<defs>
<clipPath id="clip0_1582_27312">
<rect width="24" height="24" fill="white" transform="translate(12 12)"/>
</clipPath>
</defs>
</svg>
