<svg width="48" height="48" viewBox="0 0 48 48" fill="none" xmlns="http://www.w3.org/2000/svg">
<path d="M24.2031 22.3496V26.3014H29.6948C29.4537 27.5723 28.73 28.6484 27.6447 29.372L30.9564 31.9416C32.8859 30.1606 33.9991 27.5446 33.9991 24.4369C33.9991 23.7134 33.9342 23.0176 33.8135 22.3497L24.2031 22.3496Z" fill="#4285F4"/>
<path d="M18.4845 26.1465L17.7376 26.7182L15.0938 28.7776C16.7728 32.1078 20.2141 34.4085 24.203 34.4085C26.9581 34.4085 29.2679 33.4994 30.9563 31.9409L27.6446 29.3713C26.7355 29.9836 25.5759 30.3547 24.203 30.3547C21.5499 30.3547 19.2958 28.5643 18.4887 26.1524L18.4845 26.1465Z" fill="#34A853"/>
<path d="M15.0946 19.6309C14.3988 21.0037 14 22.5529 14 24.2041C14 25.8553 14.3988 27.4045 15.0946 28.7774C15.0946 28.7866 18.4898 26.1429 18.4898 26.1429C18.2857 25.5306 18.1651 24.8813 18.1651 24.204C18.1651 23.5267 18.2857 22.8774 18.4898 22.2652L15.0946 19.6309Z" fill="#FBBC05"/>
<path d="M24.2032 18.0631C25.706 18.0631 27.0418 18.5826 28.1086 19.5845L31.0307 16.6624C29.2589 15.0112 26.9584 14 24.2032 14C20.2143 14 16.7728 16.2913 15.0938 19.6309L18.4889 22.2654C19.2959 19.8535 21.5502 18.0631 24.2032 18.0631Z" fill="#EA4335"/>
</svg>
