<svg width="48" height="48" viewBox="0 0 48 48" fill="none" xmlns="http://www.w3.org/2000/svg">
<path fill-rule="evenodd" clip-rule="evenodd" d="M28.0295 14.3936C28.0295 15.3783 27.6498 16.2967 26.8911 17.1496L26.8917 17.1502C25.9623 18.1734 24.9034 18.6326 23.7151 18.5279C23.701 18.4617 23.6936 18.3994 23.6936 18.3399V18.1535C23.6936 17.2086 24.08 16.3232 24.8523 15.4962C25.2393 15.0767 25.7293 14.7288 26.3229 14.4526C26.917 14.1775 27.4785 14.0265 28.0079 14C28.0221 14.0662 28.0295 14.1312 28.0295 14.1974V14.3936ZM31.9141 20.5012C30.34 21.3932 29.5665 22.6397 29.5961 24.2412L29.5967 24.2418C29.6115 25.4751 30.091 26.5121 31.034 27.3506C31.463 27.731 31.9425 28.0276 32.4719 28.2371C32.4146 28.3948 32.3573 28.5486 32.3006 28.6991C32.2426 28.8502 32.1785 28.9974 32.1076 29.1418C31.9505 29.4968 31.7754 29.8309 31.5819 30.1457C31.3878 30.4611 31.1912 30.7566 30.9915 31.0317C30.7049 31.4115 30.4435 31.7396 30.2075 32.0158C29.9714 32.2914 29.7532 32.5075 29.5535 32.6658C28.9804 33.1504 28.3653 33.4062 27.707 33.4321C27.2632 33.4321 26.6907 33.3009 25.9899 33.0379C25.3594 32.7893 24.7517 32.6652 24.1655 32.6652C23.5356 32.6652 22.9057 32.7898 22.2765 33.0379C21.6034 33.3009 21.0604 33.4387 20.6456 33.4519C20.001 33.4789 19.3717 33.216 18.756 32.6652C18.3276 32.3102 17.8253 31.7462 17.2533 30.9716C16.6099 30.1198 16.0798 29.1291 15.665 28.0006C15.2213 26.8186 15 25.6383 15 24.4574C15 23.1452 15.3002 22.0167 15.9029 21.0723C16.3744 20.3121 17.0037 19.7117 17.7908 19.2718C18.5772 18.8324 19.429 18.6058 20.3449 18.5925C20.8885 18.5925 21.5467 18.7364 22.319 19.0253C23.0931 19.3148 23.6151 19.4581 23.887 19.4581C24.0152 19.4581 24.5951 19.2883 25.6256 18.9465C26.5834 18.6311 27.3705 18.501 27.9862 18.5529C29.7175 18.6978 31.0266 19.3467 31.9141 20.5012Z" fill="white"/>
</svg>
