<svg width="88" height="89" viewBox="0 0 88 89" fill="none" xmlns="http://www.w3.org/2000/svg">
<path fill-rule="evenodd" clip-rule="evenodd" d="M46 11.5H42V15.5H40V19.5H38V23.5H36V27.5H34V31.5H32V35.5H30V39.5H28V43.5H26V47.5H24V51.5H22V55.5H20V59.5H18V63.5H16V67.5H14V71.5H12V75.5H10V79.5H78V75.5H76V71.5H74V67.5H72V63.5H70V59.5H68V55.5H66V51.5H64V47.5H62V43.5H60V39.5H58V35.5H56V31.5H54V27.5H52V23.5H50V19.5H48V15.5H46V11.5Z" fill="white"/>
<path fill-rule="evenodd" clip-rule="evenodd" d="M48 39.5H40V59.5H48V39.5ZM48 63.5H40V71.5H48V63.5Z" fill="#FF6C6C"/>
</svg>
